<svg xmlns="http://www.w3.org/2000/svg" version="1.1" xmlns:xlink="http://www.w3.org/1999/xlink" xmlns:svgjs="http://svgjs.com/svgjs" width="1440" height="560" preserveAspectRatio="none" viewBox="0 0 1440 560"><g mask="url(&quot;#SvgjsMask1000&quot;)" fill="none"><rect width="1440" height="560" x="0" y="0" fill="#1e3266"></rect><path d="M1536 560L0 560 L0 281.75Q75.69 237.44, 120 313.13Q206.04 279.17, 240 365.21Q282.73 287.94, 360 330.66Q379.22 277.88, 432 297.11Q518.02 263.13, 552 349.16Q597.27 322.43, 624 367.7Q650.19 273.88, 744 300.07Q788.35 272.42, 816 316.78Q858.79 287.57, 888 330.37Q907.93 278.3, 960 298.22Q1012.04 230.26, 1080 282.3Q1131.69 261.99, 1152 313.68Q1182.55 272.23, 1224 302.77Q1274.08 280.85, 1296 330.92Q1375.2 290.12, 1416 369.32Q1463.22 296.54, 1536 343.77z" fill="#182f5d"></path><path d="M1464 560L0 560 L0 363.63Q61.74 353.38, 72 415.12Q100.63 371.75, 144 400.37Q155.09 339.46, 216 350.55Q283.42 297.97, 336 365.39Q402.37 311.76, 456 378.13Q547.81 349.94, 576 441.74Q611.78 357.52, 696 393.3Q746.1 323.4, 816 373.5Q881.32 366.81, 888 432.13Q930.09 354.22, 1008 396.3Q1057.61 325.91, 1128 375.52Q1193.12 368.64, 1200 433.76Q1215.41 377.17, 1272 392.58Q1287.48 336.06, 1344 351.54Q1415.57 303.11, 1464 374.68z" fill="#25467d"></path><path d="M1464 560L0 560 L0 487.83Q70.91 438.74, 120 509.65Q135.93 453.57, 192 469.5Q209.19 414.69, 264 431.89Q313.8 409.69, 336 459.48Q404.95 408.44, 456 477.39Q469.45 418.84, 528 432.29Q604.13 388.42, 648 464.55Q699.56 444.11, 720 495.67Q763.7 467.38, 792 511.08Q794.05 441.13, 864 443.17Q915.99 375.16, 984 427.15Q1039.65 410.8, 1056 466.45Q1133.9 424.35, 1176 502.25Q1217.61 471.86, 1248 513.46Q1261.08 454.54, 1320 467.61Q1339.61 415.22, 1392 434.83Q1435.72 406.55, 1464 450.27z" fill="#356cb1"></path><path d="M1464 560L0 560 L0 505.59Q72.08 505.67, 72 577.75Q130.58 516.33, 192 574.91Q204.51 515.42, 264 527.93Q317.38 461.3, 384 514.68Q408.34 467.01, 456 491.35Q511.41 474.76, 528 530.17Q590.92 521.09, 600 584.01Q628.94 540.95, 672 569.9Q723.46 501.36, 792 552.81Q814.5 503.31, 864 525.81Q906.37 496.17, 936 538.54Q988.78 519.32, 1008 572.1Q1059.69 503.79, 1128 555.48Q1152.88 508.36, 1200 533.23Q1283.85 497.08, 1320 580.92Q1339.26 528.17, 1392 547.43Q1407.78 491.21, 1464 507z" fill="white"></path></g><defs><mask id="SvgjsMask1000"><rect width="1440" height="560" fill="#ffffff"></rect></mask></defs></svg>